<?xml version="1.0" standalone="no"?>
<!DOCTYPE svg PUBLIC "-//W3C//DTD SVG 1.0//EN" "http://www.w3.org/TR/2001/REC-SVG-20010904/DTD/svg10.dtd">
<svg xmlns="http://www.w3.org/2000/svg" xmlns:xlink="http://www.w3.org/1999/xlink" id="body_1" width="46" height="14">

<g transform="matrix(0.100877196 0 0 0.1037037 0 0)">
	<g transform="matrix(1.3333334 0 0 1.3366337 0 0)">
		<g transform="matrix(0.1 0 -0 -0.1 0 101)">
            <path d="M1384 861C 1382 859 1380 799 1380 729L1380 729L1380 601L1338 620C 1314 631 1282 640 1265 640C 1219 640 1154 605 1129 568L1129 568L1108 535L1066 576C 1018 625 958 645 888 637C 829 630 765 598 743 564C 720 529 714 545 706 660C 702 712 697 774 694 798L694 798L688 840L621 840L555 840L496 685C 464 600 434 530 431 530C 427 530 397 600 365 685L365 685L305 840L238 840C 200 840 170 836 170 832C 170 817 131 388 124 332L124 332L118 279L182 282L245 285L257 426C 263 504 270 578 272 591L272 591L276 615L287 590C 292 576 318 503 344 428L344 428L392 290L430 290L468 290L506 398C 570 580 582 612 586 607C 589 605 596 531 603 444L603 444L615 285L679 282L742 279L738 309C 735 326 735 340 736 340C 738 340 756 329 776 315C 874 249 1000 259 1076 339L1076 339L1104 369L1132 335C 1187 270 1289 253 1352 300L1352 300L1380 321L1380 300C 1380 282 1386 280 1440 280L1440 280L1500 280L1500 337L1500 395L1525 358C 1565 300 1614 275 1690 275C 1761 276 1831 304 1849 339C 1860 360 1856 366 1808 390C 1783 402 1778 401 1760 385C 1717 346 1620 371 1620 423C 1620 442 1625 443 1850 435L1850 435L2080 428L2080 480L2080 531L1971 528L1863 525L1842 561C 1813 610 1761 635 1683 635C 1631 635 1615 630 1579 605C 1556 588 1529 559 1519 540L1519 540L1500 505L1500 682L1500 858L1444 862C 1413 863 1386 863 1384 861zM1744 538C 1752 526 1757 513 1754 508C 1746 495 1620 498 1620 512C 1620 559 1716 579 1744 538zM966 516C 1029 463 982 361 901 374C 858 381 830 411 830 452C 830 530 908 567 966 516zM1355 515C 1407 464 1371 370 1300 370C 1256 370 1220 409 1220 455C 1220 501 1256 540 1300 540C 1319 540 1340 531 1355 515z" stroke="none" fill="#000000" fill-rule="nonzero" />
            <path d="M2715 848C 2677 818 2660 772 2660 695C 2660 632 2659 630 2635 630C 2615 630 2610 625 2610 605L2610 605L2610 581L2574 605C 2521 641 2460 647 2410 621C 2362 596 2356 595 2364 615C 2368 627 2359 630 2310 630L2310 630L2250 630L2250 455L2250 280L2308 280L2365 280L2365 391C 2365 500 2365 502 2393 526C 2427 555 2454 556 2480 530C 2498 512 2500 497 2500 395L2500 395L2500 280L2560 280L2620 280L2620 410C 2620 533 2621 540 2640 540C 2659 540 2660 533 2660 410L2660 410L2660 280L2715 280L2770 280L2770 410L2770 540L2795 540C 2817 540 2819 538 2810 514C 2780 435 2820 337 2901 295C 2941 274 3020 267 3070 280C 3163 305 3213 367 3213 457C 3213 523 3178 580 3117 612C 3058 643 2961 643 2902 612C 2850 585 2850 585 2850 610C 2850 627 2843 630 2810 630L2810 630L2770 630L2770 683C 2770 748 2787 775 2822 768C 2844 764 2850 769 2868 805L2868 805L2889 847L2864 859C 2822 878 2746 873 2715 848zM3073 509C 3115 458 3076 370 3011 370C 2934 370 2898 468 2956 518C 2978 537 2991 541 3019 536C 3039 533 3063 521 3073 509z" stroke="none" fill="#000000" fill-rule="nonzero" />
            <path d="M2117 822C 2095 797 2096 747 2118 727C 2160 688 2233 719 2233 775C 2233 832 2154 863 2117 822z" stroke="none" fill="#000000" fill-rule="nonzero" />
            <path d="M2108 523C 2106 463 2106 385 2108 348L2108 348L2111 280L2165 280L2220 280L2220 455L2220 630L2166 630L2111 630L2108 523z" stroke="none" fill="#000000" fill-rule="nonzero" />
            <path d="M3231 394C 3207 364 3205 351 3221 317C 3232 293 3268 270 3295 270C 3303 270 3321 281 3336 293C 3368 321 3372 371 3344 401C 3317 431 3257 427 3231 394z" stroke="none" fill="#000000" fill-rule="nonzero" />
            <path d="M1102 150C 1102 109 1104 103 1109 125C 1118 168 1147 170 1153 128L1153 128L1158 95L1156 130C 1155 158 1151 165 1135 165C 1124 165 1112 174 1108 185C 1105 196 1102 181 1102 150z" stroke="none" fill="#000000" fill-rule="nonzero" />
            <path d="M1861 155C 1860 108 1862 104 1885 102C 1898 101 1911 104 1914 108C 1917 113 1909 116 1897 116C 1871 115 1861 147 1886 157C 1897 161 1908 156 1916 145C 1924 135 1930 131 1930 137C 1930 154 1902 173 1886 167C 1876 163 1870 169 1867 183C 1865 195 1862 182 1861 155z" stroke="none" fill="#000000" fill-rule="nonzero" />
            <path d="M2043 150C 2043 120 2045 107 2047 122C 2049 138 2049 162 2047 178C 2045 193 2043 180 2043 150z" stroke="none" fill="#000000" fill-rule="nonzero" />
            <path d="M613 150C 613 125 615 115 617 128C 619 140 619 160 617 173C 615 185 613 175 613 150z" stroke="none" fill="#000000" fill-rule="nonzero" />
            <path d="M774 156C 763 126 775 105 803 104C 827 103 830 106 830 136C 830 166 827 170 805 170C 791 170 777 164 774 156zM818 138C 813 104 780 101 780 134C 780 154 785 160 801 160C 816 160 821 155 818 138z" stroke="none" fill="#000000" fill-rule="nonzero" />
            <path d="M958 163C 964 161 976 161 983 163C 989 166 984 168 970 168C 956 168 951 166 958 163z" stroke="none" fill="#000000" fill-rule="nonzero" />
            <path d="M1273 135C 1273 113 1275 105 1277 118C 1279 130 1279 148 1277 158C 1274 167 1272 157 1273 135z" stroke="none" fill="#000000" fill-rule="nonzero" />
            <path d="M1397 163C 1384 151 1390 112 1406 106C 1432 96 1439 99 1450 123C 1460 144 1460 144 1446 126C 1428 104 1397 112 1402 137C 1404 148 1414 155 1427 154C 1439 154 1447 157 1444 162C 1438 172 1406 173 1397 163z" stroke="none" fill="#000000" fill-rule="nonzero" />
            <path d="M1573 163C 1566 161 1560 146 1561 132L1561 132L1562 105L1569 130C 1579 166 1608 168 1613 133C 1617 106 1617 106 1619 138C 1620 170 1607 177 1573 163z" stroke="none" fill="#000000" fill-rule="nonzero" />
            <path d="M2167 163C 2151 148 2161 111 2182 104C 2210 95 2234 124 2219 151C 2209 170 2180 176 2167 163zM2213 147C 2221 127 2204 106 2186 113C 2163 122 2165 160 2189 160C 2199 160 2210 154 2213 147z" stroke="none" fill="#000000" fill-rule="nonzero" />
            <path d="M2333 154C 2324 129 2343 105 2374 104C 2397 103 2400 107 2400 134C 2400 162 2397 166 2370 168C 2349 170 2337 165 2333 154zM2385 135C 2385 105 2346 108 2342 138C 2339 158 2342 161 2362 158C 2377 156 2385 148 2385 135z" stroke="none" fill="#000000" fill-rule="nonzero" />
            <path d="M2515 159C 2511 153 2511 146 2514 143C 2517 139 2520 142 2520 148C 2520 154 2528 161 2538 163C 2553 167 2553 168 2538 169C 2529 169 2518 165 2515 159z" stroke="none" fill="#000000" fill-rule="nonzero" />
            <path d="M2560 145C 2560 116 2533 100 2518 121C 2510 133 2509 132 2513 120C 2515 112 2527 105 2539 106C 2553 106 2559 102 2556 93C 2553 86 2555 80 2560 80C 2566 80 2570 100 2570 125C 2570 150 2568 170 2565 170C 2562 170 2560 159 2560 145z" stroke="none" fill="#000000" fill-rule="nonzero" />
            <path d="M2708 163C 2731 158 2737 145 2720 137C 2714 134 2715 133 2722 134C 2745 139 2736 165 2710 167C 2688 168 2688 168 2708 163z" stroke="none" fill="#000000" fill-rule="nonzero" />
            <path d="M2851 135C 2852 115 2854 111 2857 125C 2860 136 2869 150 2877 157C 2890 167 2889 169 2871 167C 2854 166 2850 160 2851 135z" stroke="none" fill="#000000" fill-rule="nonzero" />
            <path d="M963 137C 986 118 985 106 959 113C 943 117 940 116 948 108C 960 96 990 104 990 119C 990 125 980 134 968 140C 947 150 947 150 963 137z" stroke="none" fill="#000000" fill-rule="nonzero" />
            <path d="M2681 136C 2686 110 2716 92 2730 106C 2738 114 2734 116 2718 116C 2706 115 2695 120 2695 127C 2695 133 2691 142 2686 147C 2682 151 2679 146 2681 136z" stroke="none" fill="#000000" fill-rule="nonzero" />
		</g>
	</g>
</g>
</svg>